HIERARCHY
ROOT Hips
{
    OFFSET 0.000000 0.000000 0.000000
    CHANNELS 6 Xposition Yposition Zposition Zrotation Xrotation Yrotation
    JOINT Spine
    {
        OFFSET -0.000000 8.267054 0.000000
        CHANNELS 3 Zrotation Xrotation Yrotation
        JOINT Spine1
        {
            OFFSET -0.000000 23.684998 0.000000
            CHANNELS 3 Zrotation Xrotation Yrotation
            JOINT Neck
            {
                OFFSET -0.000000 23.587730 2.144339
                CHANNELS 3 Zrotation Xrotation Yrotation
                JOINT Head
                {
                    OFFSET -0.000000 14.114483 -2.016355
                    CHANNELS 3 Zrotation Xrotation Yrotation
                    End Site
                    {
                        OFFSET -0.000000 25.204432 0.000000
                    }
                }
            }
            JOINT LeftShoulder
            {
                OFFSET 4.070090 22.062094 -0.247321
                CHANNELS 3 Zrotation Xrotation Yrotation
                JOINT LeftArm
                {
                    OFFSET 10.395479 0.000000 0.000000
                    CHANNELS 3 Zrotation Xrotation Yrotation
                    JOINT LeftForeArm
                    {
                        OFFSET 37.713577 0.000000 0.000000
                        CHANNELS 3 Zrotation Xrotation Yrotation
                        JOINT LeftHand
                        {
                            OFFSET 20.284107 0.000000 0.000000
                            CHANNELS 3 Zrotation Xrotation Yrotation
                            End Site
                            {
                                OFFSET 15.122660 0.000000 0.000000
                            }
                        }
                    }
                }
            }
            JOINT RightShoulder
            {
                OFFSET -3.979272 22.062094 -0.247321
                CHANNELS 3 Zrotation Xrotation Yrotation
                JOINT RightArm
                {
                    OFFSET -10.395479 0.000000 0.000000
                    CHANNELS 3 Zrotation Xrotation Yrotation
                    JOINT RightForeArm
                    {
                        OFFSET -37.713577 0.000000 0.000000
                        CHANNELS 3 Zrotation Xrotation Yrotation
                        JOINT RightHand
                        {
                            OFFSET -20.284107 0.000000 0.000000
                            CHANNELS 3 Zrotation Xrotation Yrotation
                            End Site
                            {
                                OFFSET -15.122660 0.000000 0.000000
                            }
                        }
                    }
                }
            }
        }
    }
    JOINT LeftUpLeg
    {
        OFFSET 10.081773 0.000000 0.000000
        CHANNELS 3 Zrotation Xrotation Yrotation
        JOINT LeftLeg
        {
            OFFSET -0.000000 -36.382099 0.000000
            CHANNELS 3 Zrotation Xrotation Yrotation
            JOINT LeftFoot
            {
                OFFSET -0.000000 -49.182560 0.000000
                CHANNELS 3 Zrotation Xrotation Yrotation
                JOINT LeftToeBase
                {
                    OFFSET -0.000000 -6.553152 15.122660
                    CHANNELS 3 Zrotation Xrotation Yrotation
                    End Site
                    {
                        OFFSET -0.000000 0.000000 4.032709
                    }
                }
            }
        }
    }
    JOINT RightUpLeg
    {
        OFFSET -10.081773 0.000000 0.000000
        CHANNELS 3 Zrotation Xrotation Yrotation
        JOINT RightLeg
        {
            OFFSET -0.000000 -36.382099 0.000000
            CHANNELS 3 Zrotation Xrotation Yrotation
            JOINT RightFoot
            {
                OFFSET -0.000000 -49.182560 0.000000
                CHANNELS 3 Zrotation Xrotation Yrotation
                JOINT RightToeBase
                {
                    OFFSET -0.000000 -6.553152 15.122660
                    CHANNELS 3 Zrotation Xrotation Yrotation
                    End Site
                    {
                        OFFSET -0.000000 0.000000 4.032709
                    }
                }
            }
        }
    }
}
MOTION
Frames:    13
Frame Time:    0.008333
5.356902    92.386177    15.311501    -0.901798    -1.765787    -174.917130    -1.136858    -11.486777    0.273688    -1.075416    1.288944    0.400317    3.519429    31.690035    0.464531    0.483148    -16.075195    1.155585    19.161461    -4.561955    -9.163647    -21.828402    5.590617    -6.702233    0.867051    -1.396194    3.301170    3.404309    -1.460987    -1.338167    -13.752872    -1.043771    0.500898    26.297600    3.125414    3.758401    -2.279603    -2.103078    0.640938    -7.300309    -1.862612    -3.570605    -2.425456    -4.717900    -1.262093    1.566679    14.671524    1.699844    -0.319748    -11.087497    -1.322809    0.000000    0.000000    0.000000    -1.846889    -1.919253    -0.363873    0.202037    12.077851    4.658196    1.032679    -10.952279    -11.828558    0.000000    0.000000    0.000000    
5.349199    92.384781    15.310513    -0.904386    -1.752115    -174.930435    -1.136709    -11.480334    0.277031    -1.076282    1.307569    0.403657    3.522256    31.710419    0.461798    0.492956    -16.008451    1.156416    19.162460    -4.551485    -9.156626    -21.837591    5.629939    -6.702913    0.875654    -1.419128    3.284814    3.435675    -1.484490    -1.341393    -13.749112    -1.034693    0.499132    26.292191    3.165990    3.781978    -2.297341    -2.123675    0.700500    -7.321059    -1.881326    -3.570376    -2.433437    -4.712992    -1.263316    1.568276    14.690951    1.699992    -0.316418    -11.094129    -1.310950    0.000000    0.000000    0.000000    -1.850030    -1.920687    -0.367759    0.197256    12.095411    4.670513    0.973184    -10.933955    -11.825697    0.000000    0.000000    0.000000    
5.341555    92.383415    15.309742    -0.906766    -1.738681    -174.943771    -1.136995    -11.473648    0.280182    -1.075936    1.326404    0.406980    3.525513    31.728556    0.459579    0.500616    -15.940063    1.157101    19.162804    -4.540907    -9.149662    -21.846369    5.668448    -6.702897    0.883431    -1.441648    3.269159    3.465081    -1.507565    -1.344826    -13.745590    -1.026021    0.497694    26.286110    3.205387    3.804989    -2.315014    -2.142333    0.759497    -7.340551    -1.898053    -3.570196    -2.441115    -4.708669    -1.263043    1.569937    14.710618    1.698796    -0.312114    -11.100423    -1.298819    0.000000    0.000000    0.000000    -1.853023    -1.922528    -0.371882    0.192218    12.113397    4.682800    0.912803    -10.916766    -11.822277    0.000000    0.000000    0.000000    
5.334168    92.382095    15.309389    -0.908645    -1.725944    -174.956879    -1.137794    -11.466595    0.283139    -1.073790    1.345082    0.410110    3.530191    31.743134    0.457571    0.503592    -15.871717    1.156745    19.162607    -4.530495    -9.142920    -21.854805    5.703921    -6.701953    0.889213    -1.462460    3.255410    3.491440    -1.528871    -1.348779    -13.743234    -1.017960    0.497017    26.279667    3.242203    3.826163    -2.331586    -2.158203    0.817070    -7.359178    -1.912048    -3.570761    -2.448159    -4.705219    -1.261215    1.571765    14.730018    1.696702    -0.306715    -11.106617    -1.287313    0.000000    0.000000    0.000000    -1.855706    -1.925126    -0.376774    0.186991    12.131887    4.695756    0.851633    -10.901743    -11.818526    0.000000    0.000000    0.000000    
5.326677    92.380814    15.309620    -0.910013    -1.713450    -174.970398    -1.139153    -11.458691    0.286147    -1.069625    1.364840    0.413212    3.538162    31.754660    0.455236    0.499495    -15.801381    1.154585    19.161797    -4.520267    -9.136401    -21.863350    5.736390    -6.699317    0.893026    -1.480850    3.243430    3.514421    -1.547635    -1.353150    -13.741734    -1.009962    0.497272    26.272181    3.277844    3.846031    -2.347864    -2.171155    0.875961    -7.376743    -1.923025    -3.572241    -2.454555    -4.702505    -1.259252    1.572932    14.749508    1.694380    -0.299130    -11.112475    -1.275073    0.000000    0.000000    0.000000    -1.858316    -1.928937    -0.383171    0.181308    12.152090    4.710438    0.793447    -10.887868    -11.813610    0.000000    0.000000    0.000000    
5.319519    92.379623    15.310460    -0.910627    -1.701892    -174.983521    -1.140736    -11.450285    0.288993    -1.063887    1.384608    0.416192    3.549036    31.762589    0.452596    0.488820    -15.734122    1.150621    19.160398    -4.510498    -9.130963    -21.871487    5.761374    -6.694845    0.894471    -1.495014    3.234146    3.534005    -1.562121    -1.357081    -13.740929    -1.002075    0.498395    26.263754    3.310794    3.863618    -2.362319    -2.181202    0.931995    -7.392576    -1.931176    -3.574370    -2.460110    -4.700586    -1.255518    1.574377    14.767677    1.691563    -0.289940    -11.117562    -1.264093    0.000000    0.000000    0.000000    -1.860518    -1.933559    -0.390979    0.175275    12.172618    4.725742    0.745302    -10.875987    -11.806955    0.000000    0.000000    0.000000    
5.312479    92.378510    15.311927    -0.910481    -1.691090    -174.996368    -1.142328    -11.441323    0.291704    -1.056886    1.404956    0.419099    3.562344    31.769798    0.448868    0.472982    -15.673394    1.144440    19.158329    -4.500393    -9.126642    -21.879086    5.777307    -6.688688    0.893660    -1.504588    3.227505    3.551046    -1.571887    -1.359469    -13.740486    -0.993880    0.500299    26.254189    3.342713    3.879644    -2.375537    -2.189833    0.985566    -7.406564    -1.937944    -3.577774    -2.465087    -4.699264    -1.249203    1.576400    14.784514    1.689559    -0.279411    -11.121881    -1.255998    0.000000    0.000000    0.000000    -1.862760    -1.938735    -0.399499    0.169739    12.192979    4.741276    0.702555    -10.865660    -11.798695    0.000000    0.000000    0.000000    
5.305369    92.377403    15.314015    -0.909564    -1.680925    -175.009048    -1.143923    -11.431611    0.294164    -1.048559    1.426013    0.421714    3.577578    31.777468    0.443625    0.452879    -15.619746    1.135840    19.155512    -4.489137    -9.122940    -21.886154    5.782712    -6.681409    0.890709    -1.509909    3.223606    3.567666    -1.577257    -1.358872    -13.740395    -0.984859    0.503418    26.243433    3.374854    3.894401    -2.388422    -2.198211    1.036254    -7.419426    -1.944655    -3.578611    -2.469442    -4.698390    -1.240536    1.578857    14.800119    1.686985    -0.267981    -11.125882    -1.249507    0.000000    0.000000    0.000000    -1.865281    -1.944335    -0.408970    0.165030    12.212805    4.757253    0.662928    -10.856586    -11.788736    0.000000    0.000000    0.000000    
5.298184    92.376297    15.316703    -0.907954    -1.671722    -175.021332    -1.145398    -11.421407    0.296031    -1.039568    1.447297    0.423817    3.594848    31.783058    0.436635    0.428945    -15.568762    1.124789    19.152260    -4.475877    -9.119180    -21.892540    5.776750    -6.674123    0.886233    -1.510547    3.223302    3.583681    -1.577842    -1.354745    -13.739961    -0.975220    0.508486    26.231443    3.407237    3.907249    -2.401033    -2.206857    1.082402    -7.433091    -1.952248    -3.572146    -2.473287    -4.698133    -1.228791    1.582099    14.814249    1.681866    -0.255119    -11.129837    -1.243713    0.000000    0.000000    0.000000    -1.868400    -1.950441    -0.419273    0.161688    12.231672    4.773753    0.627075    -10.849318    -11.778312    0.000000    0.000000    0.000000    
5.290925    92.375221    15.319956    -0.905713    -1.663572    -175.033142    -1.146770    -11.410595    0.297312    -1.029984    1.468148    0.425123    3.613509    31.784647    0.427836    0.402059    -15.516579    1.110953    19.148453    -4.460720    -9.114908    -21.898146    5.760464    -6.667298    0.880473    -1.506908    3.227495    3.600882    -1.574137    -1.348385    -13.739314    -0.965321    0.515713    26.218607    3.439296    3.918045    -2.413267    -2.216612    1.123662    -7.445367    -1.961206    -3.563112    -2.476663    -4.698215    -1.213802    1.586084    14.826503    1.675571    -0.240911    -11.133461    -1.239602    0.000000    0.000000    0.000000    -1.872139    -1.957117    -0.430165    0.159793    12.249603    4.790749    0.599228    -10.843492    -11.768346    0.000000    0.000000    0.000000    
5.283584    92.374191    15.323835    -0.902988    -1.656734    -175.044830    -1.148185    -11.399068    0.297881    -1.019826    1.487846    0.425783    3.631030    31.782898    0.417345    0.376251    -15.463304    1.095485    19.143915    -4.445032    -9.109894    -21.903244    5.736976    -6.660510    0.873926    -1.499525    3.236902    3.620595    -1.566616    -1.341501    -13.738741    -0.955444    0.525139    26.205412    3.469697    3.926933    -2.424839    -2.227178    1.159681    -7.454783    -1.971107    -3.555864    -2.479689    -4.698681    -1.196154    1.590625    14.836498    1.668475    -0.225671    -11.136992    -1.237175    0.000000    0.000000    0.000000    -1.876785    -1.964751    -0.439939    0.159781    12.266829    4.806845    0.583037    -10.838588    -11.758679    0.000000    0.000000    0.000000    
5.276242    92.373314    15.328357    -0.899795    -1.651285    -175.056458    -1.149506    -11.386460    0.297876    -1.009540    1.505348    0.425798    3.646583    31.778912    0.405455    0.353483    -15.409774    1.078970    19.138828    -4.430342    -9.104112    -21.907948    5.709606    -6.653501    0.865985    -1.489547    3.252013    3.646748    -1.556656    -1.335239    -13.738061    -0.945792    0.536799    26.192154    3.496653    3.933854    -2.435096    -2.237476    1.189615    -7.462631    -1.980825    -3.549581    -2.482308    -4.699494    -1.176322    1.595777    14.844071    1.659595    -0.210754    -11.140038    -1.235688    0.000000    0.000000    0.000000    -1.882004    -1.973698    -0.447968    0.161111    12.283960    4.821135    0.572625    -10.834990    -11.748693    0.000000    0.000000    0.000000    
5.268676    92.372620    15.333668    -0.896360    -1.647311    -175.068436    -1.150648    -11.372252    0.297431    -0.999839    1.520186    0.425303    3.660733    31.772923    0.391383    0.334142    -15.353780    1.060824    19.133406    -4.416806    -9.097444    -21.912189    5.680171    -6.646185    0.856008    -1.476849    3.273506    3.681470    -1.544064    -1.329519    -13.736498    -0.936378    0.550890    26.178354    3.520499    3.938807    -2.443848    -2.247086    1.214366    -7.469398    -1.989970    -3.544158    -2.484880    -4.700676    -1.154814    1.601280    14.848784    1.648971    -0.196052    -11.142073    -1.234356    0.000000    0.000000    0.000000    -1.888332    -1.984909    -0.453987    0.163833    12.302582    4.834020    0.559594    -10.833807    -11.738499    0.000000    0.000000    0.000000    
